<svg width="194" height="61" viewBox="0 0 194 61" fill="none" xmlns="http://www.w3.org/2000/svg">
<path d="M11.3359 9.47266H27.4297C29.7734 9.47266 31.8047 9.72656 33.5234 10.2344C35.2422 10.7422 36.668 11.4779 37.8008 12.4414C38.9336 13.3919 39.7734 14.5573 40.3203 15.9375C40.8802 17.3177 41.1602 18.8737 41.1602 20.6055C41.1602 22.2331 40.8867 23.737 40.3398 25.1172C39.793 26.4974 38.9531 27.6953 37.8203 28.7109C36.7005 29.7135 35.2812 30.5013 33.5625 31.0742C31.8438 31.6341 29.8125 31.9141 27.4688 31.9141L17.5273 31.8945V40H11.3359V9.47266ZM27.5859 26.543C28.7578 26.543 29.7799 26.4062 30.6523 26.1328C31.5378 25.8464 32.2734 25.4492 32.8594 24.9414C33.4583 24.4206 33.901 23.7956 34.1875 23.0664C34.487 22.3242 34.6367 21.5039 34.6367 20.6055C34.6367 18.7956 34.0443 17.3893 32.8594 16.3867C31.6875 15.3711 29.9297 14.8633 27.5859 14.8633H17.5273V26.543H27.5859ZM45.8281 28.4766C45.8281 26.8229 46.1602 25.2734 46.8242 23.8281C47.5013 22.3828 48.4583 21.1198 49.6953 20.0391C50.9453 18.9583 52.4492 18.1055 54.207 17.4805C55.9779 16.8555 57.9635 16.543 60.1641 16.543C62.3646 16.543 64.3438 16.8555 66.1016 17.4805C67.8724 18.1055 69.3763 18.9583 70.6133 20.0391C71.8633 21.1198 72.8203 22.3828 73.4844 23.8281C74.1615 25.2734 74.5 26.8229 74.5 28.4766C74.5 30.1302 74.1615 31.6797 73.4844 33.125C72.8203 34.5703 71.8633 35.8333 70.6133 36.9141C69.3763 37.9948 67.8724 38.8477 66.1016 39.4727C64.3438 40.0977 62.3646 40.4102 60.1641 40.4102C57.9635 40.4102 55.9779 40.0977 54.207 39.4727C52.4492 38.8477 50.9453 37.9948 49.6953 36.9141C48.4583 35.8333 47.5013 34.5703 46.8242 33.125C46.1602 31.6797 45.8281 30.1302 45.8281 28.4766ZM51.9023 28.4766C51.9023 29.401 52.0846 30.2799 52.4492 31.1133C52.8268 31.9336 53.3672 32.6628 54.0703 33.3008C54.7865 33.9258 55.6523 34.4271 56.668 34.8047C57.6966 35.1693 58.862 35.3516 60.1641 35.3516C61.4661 35.3516 62.625 35.1693 63.6406 34.8047C64.6693 34.4271 65.5352 33.9258 66.2383 33.3008C66.9544 32.6628 67.4948 31.9336 67.8594 31.1133C68.237 30.2799 68.4258 29.401 68.4258 28.4766C68.4258 27.5521 68.237 26.6732 67.8594 25.8398C67.4948 25.0065 66.9544 24.2773 66.2383 23.6523C65.5352 23.0143 64.6693 22.513 63.6406 22.1484C62.625 21.7708 61.4661 21.582 60.1641 21.582C58.862 21.582 57.6966 21.7708 56.668 22.1484C55.6523 22.513 54.7865 23.0143 54.0703 23.6523C53.3672 24.2773 52.8268 25.0065 52.4492 25.8398C52.0846 26.6732 51.9023 27.5521 51.9023 28.4766ZM83.3867 13.8086C82.8138 13.8086 82.293 13.7305 81.8242 13.5742C81.3685 13.4049 80.9779 13.1836 80.6523 12.9102C80.3268 12.6237 80.0729 12.2982 79.8906 11.9336C79.7214 11.556 79.6367 11.1589 79.6367 10.7422C79.6367 10.3125 79.7214 9.91536 79.8906 9.55078C80.0729 9.17318 80.3268 8.84766 80.6523 8.57422C80.9779 8.30078 81.3685 8.08594 81.8242 7.92969C82.293 7.76042 82.8138 7.67578 83.3867 7.67578C83.9727 7.67578 84.4935 7.76042 84.9492 7.92969C85.418 8.08594 85.8151 8.30078 86.1406 8.57422C86.4661 8.84766 86.7135 9.17318 86.8828 9.55078C87.0651 9.91536 87.1562 10.3125 87.1562 10.7422C87.1562 11.1589 87.0651 11.556 86.8828 11.9336C86.7135 12.2982 86.4661 12.6237 86.1406 12.9102C85.8151 13.1836 85.418 13.4049 84.9492 13.5742C84.4935 13.7305 83.9727 13.8086 83.3867 13.8086ZM80.4961 16.9531H86.2773V40H80.4961V16.9531ZM93.6992 16.9531H99.4805V18.9062C101.017 18.0339 102.482 17.4219 103.875 17.0703C105.281 16.7188 106.655 16.543 107.996 16.543C109.754 16.543 111.382 16.8034 112.879 17.3242C114.376 17.832 115.672 18.5938 116.766 19.6094C117.859 20.625 118.712 21.8945 119.324 23.418C119.949 24.9284 120.262 26.6797 120.262 28.6719V40H114.5V29.6094C114.5 28.3464 114.318 27.2201 113.953 26.2305C113.602 25.2279 113.087 24.388 112.41 23.7109C111.746 23.0208 110.932 22.5 109.969 22.1484C109.018 21.7839 107.951 21.6016 106.766 21.6016C106.141 21.6016 105.496 21.6667 104.832 21.7969C104.181 21.9271 103.536 22.1159 102.898 22.3633C102.273 22.5977 101.668 22.8971 101.082 23.2617C100.496 23.6133 99.9622 24.0169 99.4805 24.4727V40H93.6992V16.9531ZM130.848 21.2891H125.281V16.9531H130.848V9.78516H136.629V16.9531H142.195V21.2891H136.629V40H130.848V21.2891ZM147.273 9.47266H153.504V40H147.273V9.47266ZM161.414 9.47266H172.605C175.874 9.47266 178.712 9.82422 181.121 10.5273C183.53 11.2305 185.522 12.2396 187.098 13.5547C188.686 14.8568 189.865 16.4453 190.633 18.3203C191.414 20.1823 191.805 22.2786 191.805 24.6094C191.805 26.8229 191.421 28.8737 190.652 30.7617C189.884 32.6367 188.712 34.2643 187.137 35.6445C185.561 37.0117 183.569 38.0859 181.16 38.8672C178.751 39.6354 175.913 40.0195 172.645 40.0195L161.414 40V9.47266ZM174.129 34.6484C175.978 34.6484 177.599 34.4141 178.992 33.9453C180.385 33.4635 181.544 32.7865 182.469 31.9141C183.406 31.0417 184.109 29.987 184.578 28.75C185.047 27.513 185.281 26.1328 185.281 24.6094C185.281 23.112 185.047 21.7643 184.578 20.5664C184.109 19.3555 183.406 18.3333 182.469 17.5C181.544 16.6536 180.385 16.0026 178.992 15.5469C177.599 15.0911 175.978 14.8633 174.129 14.8633H167.605V34.6484H174.129Z" fill="black"/>
<rect y="9" width="7" height="51" fill="black"/>
<path d="M18.68 60.2C17.7333 60.2 16.8467 60.02 16.02 59.66C15.1933 59.2867 14.46 58.7733 13.82 58.12C13.1933 57.4667 12.7 56.7133 12.34 55.86C11.98 55.0067 11.8 54.0867 11.8 53.1C11.8 52.1 11.9733 51.16 12.32 50.28C12.68 49.4 13.1733 48.6267 13.8 47.96C14.44 47.2933 15.1733 46.7733 16 46.4C16.84 46.0133 17.7333 45.82 18.68 45.82C19.8133 45.82 20.8667 46.08 21.84 46.6C22.8133 47.1067 23.6467 47.8533 24.34 48.84L22.96 49.74C22.4133 48.9933 21.7733 48.4333 21.04 48.06C20.3067 47.6733 19.52 47.48 18.68 47.48C17.9333 47.48 17.24 47.6333 16.6 47.94C15.9733 48.2333 15.42 48.64 14.94 49.16C14.4733 49.68 14.1067 50.28 13.84 50.96C13.5867 51.6267 13.46 52.34 13.46 53.1C13.46 53.8333 13.5933 54.5333 13.86 55.2C14.1267 55.8533 14.5 56.4333 14.98 56.94C15.46 57.4467 16.0133 57.8467 16.64 58.14C17.28 58.4333 17.96 58.58 18.68 58.58C19.68 58.58 20.5067 58.4333 21.16 58.14C21.8267 57.8467 22.4 57.3267 22.88 56.58V54.88H20.42V53.32H24.54V56.98C23.98 58.1 23.22 58.92 22.26 59.44C21.3133 59.9467 20.12 60.2 18.68 60.2ZM35.5759 55.48H27.7959C27.8226 56.3467 28.0559 57.0333 28.4959 57.54C28.9359 58.0467 29.4959 58.38 30.1759 58.54C30.8559 58.7 31.5826 58.6867 32.3559 58.5C33.1293 58.3133 33.8626 57.96 34.5559 57.44L35.3959 58.68C34.7426 59.1867 34.0626 59.56 33.3559 59.8C32.6493 60.04 31.9426 60.1667 31.2359 60.18C29.5693 60.22 28.2959 59.76 27.4159 58.8C26.5359 57.8267 26.0959 56.4733 26.0959 54.74C26.0959 53.26 26.5093 52.08 27.3359 51.2C28.1759 50.32 29.3893 49.8867 30.9759 49.9C32.0159 49.9 32.9026 50.1133 33.6359 50.54C34.3693 50.9667 34.9093 51.6 35.2559 52.44C35.4293 52.8533 35.5359 53.3133 35.5759 53.82C35.6293 54.3267 35.6293 54.88 35.5759 55.48ZM31.0559 51.38C30.1493 51.38 29.3759 51.62 28.7359 52.1C28.1093 52.5667 27.7959 53.2667 27.7959 54.2H34.1559C34.1559 53.32 33.8759 52.6333 33.3159 52.14C32.7693 51.6333 32.0159 51.38 31.0559 51.38ZM37.3664 58.84L38.3064 57.82C38.7197 58.1267 39.1331 58.3667 39.5464 58.54C39.9597 58.7 40.3797 58.7733 40.8064 58.76C41.0597 58.76 41.2997 58.7267 41.5264 58.66C41.7531 58.5933 41.9664 58.48 42.1664 58.32C42.4197 58.1333 42.5864 57.8933 42.6664 57.6C42.7597 57.3067 42.7597 57.0267 42.6664 56.76C42.5597 56.4667 42.3664 56.2333 42.0864 56.06C41.8064 55.8867 41.4731 55.74 41.0864 55.62C40.7131 55.4867 40.3197 55.3533 39.9064 55.22C39.5064 55.0733 39.1331 54.8933 38.7864 54.68C38.1864 54.28 37.7997 53.8267 37.6264 53.32C37.4531 52.8 37.4531 52.2933 37.6264 51.8C37.8131 51.2933 38.1397 50.8667 38.6064 50.52C39.0864 50.1733 39.6797 49.9733 40.3864 49.92C41.0664 49.88 41.7264 49.96 42.3664 50.16C43.0064 50.36 43.5064 50.64 43.8664 51L42.8664 51.96C42.5331 51.7333 42.1731 51.5667 41.7864 51.46C41.3997 51.3533 41.0264 51.3 40.6664 51.3C40.2397 51.3133 39.8731 51.4133 39.5664 51.6C39.2731 51.7867 39.1064 52.0867 39.0664 52.5C39.0397 52.8867 39.1664 53.1933 39.4464 53.42C39.7264 53.6333 40.1131 53.8267 40.6064 54C41.0997 54.16 41.6331 54.3467 42.2064 54.56C42.8731 54.8267 43.3864 55.2133 43.7464 55.72C44.1197 56.2133 44.2331 56.8467 44.0864 57.62C43.9931 58.34 43.6997 58.9067 43.2064 59.32C42.7264 59.7333 42.1397 59.9933 41.4464 60.1C40.7531 60.2067 40.0397 60.16 39.3064 59.96C38.5864 59.7467 37.9397 59.3733 37.3664 58.84ZM47.3877 55.68V51.48H45.6477V50H47.3877V46H48.9677V50H50.7277V51.48H48.9677V55.68C48.9677 56.5333 48.9943 57.16 49.0477 57.56C49.1143 57.9467 49.241 58.1933 49.4277 58.3C49.6143 58.4067 49.8877 58.4667 50.2477 58.48H50.7477V60.06H50.3077C49.6943 60.06 49.1943 60.0067 48.8077 59.9C48.421 59.78 48.121 59.5667 47.9077 59.26C47.7077 58.9533 47.5677 58.5133 47.4877 57.94C47.421 57.3667 47.3877 56.6133 47.3877 55.68ZM53.7827 48.68C53.4893 48.68 53.236 48.58 53.0227 48.38C52.8227 48.1667 52.7227 47.9133 52.7227 47.62C52.7227 47.3267 52.8227 47.08 53.0227 46.88C53.236 46.6667 53.4893 46.56 53.7827 46.56C54.076 46.56 54.3227 46.6667 54.5227 46.88C54.736 47.08 54.8427 47.3267 54.8427 47.62C54.8427 47.9133 54.736 48.1667 54.5227 48.38C54.3227 48.58 54.076 48.68 53.7827 48.68ZM54.5427 60H53.0427V50H54.5427V60ZM61.0931 60.24C60.1331 60.24 59.2865 60.0333 58.5531 59.62C57.8331 59.2067 57.2665 58.6267 56.8531 57.88C56.4531 57.12 56.2531 56.2333 56.2531 55.22C56.2531 54.0467 56.4665 53.0667 56.8931 52.28C57.3198 51.4933 57.8931 50.9 58.6131 50.5C59.3465 50.1 60.1731 49.9 61.0931 49.9C62.0398 49.9 62.8731 50.1 63.5931 50.5C64.3265 50.9 64.8998 51.4933 65.3131 52.28C65.7265 53.0667 65.9331 54.0467 65.9331 55.22C65.9331 56.2333 65.7265 57.12 65.3131 57.88C64.8998 58.6267 64.3265 59.2067 63.5931 59.62C62.8731 60.0333 62.0398 60.24 61.0931 60.24ZM61.0931 58.72C61.7998 58.72 62.3998 58.5667 62.8931 58.26C63.3865 57.94 63.7598 57.5133 64.0131 56.98C64.2665 56.4467 64.3931 55.86 64.3931 55.22C64.3931 54.1267 64.1065 53.2267 63.5331 52.52C62.9731 51.8 62.1598 51.44 61.0931 51.44C60.0131 51.44 59.1931 51.8 58.6331 52.52C58.0731 53.24 57.7931 54.14 57.7931 55.22C57.7931 55.8733 57.9131 56.4667 58.1531 57C58.4065 57.52 58.7798 57.94 59.2731 58.26C59.7665 58.5667 60.3731 58.72 61.0931 58.72ZM76.5022 60H74.9222V54.06C74.9222 53.42 74.7822 52.9067 74.5022 52.52C74.2355 52.1333 73.8889 51.86 73.4622 51.7C73.0489 51.5267 72.6155 51.44 72.1622 51.44C71.7222 51.44 71.2822 51.5333 70.8422 51.72C70.4155 51.9067 70.0555 52.1933 69.7622 52.58C69.4689 52.9667 69.3222 53.46 69.3222 54.06V60H67.7422V50H69.3222V51.08C69.6289 50.6667 70.0489 50.3667 70.5822 50.18C71.1155 49.98 71.6689 49.88 72.2422 49.88C73.0155 49.88 73.7222 50.04 74.3622 50.36C75.0155 50.68 75.5355 51.1533 75.9222 51.78C76.3089 52.3933 76.5022 53.1533 76.5022 54.06V60ZM89.4063 59.98C88.6063 59.8867 87.9263 59.6067 87.3663 59.14C86.8196 58.6733 86.4063 58.08 86.1263 57.36C85.8463 56.6267 85.7063 55.8067 85.7063 54.9C85.7063 53.9267 85.8796 53.0667 86.2262 52.32C86.5863 51.56 87.0996 50.9667 87.7663 50.54C88.4463 50.1 89.2663 49.88 90.2263 49.88C90.6129 49.88 91.0129 49.9067 91.4263 49.96C91.8529 50.0133 92.3129 50.1667 92.8063 50.42V46H94.3863V60H92.8063V59.06C92.4329 59.38 91.9396 59.64 91.3263 59.84C90.7129 60.04 90.0729 60.0867 89.4063 59.98ZM92.8063 57.72V51.92C91.8463 51.52 90.9463 51.3667 90.1063 51.46C89.2796 51.5533 88.6063 51.8933 88.0863 52.48C87.5663 53.0533 87.3063 53.86 87.3063 54.9C87.3063 55.74 87.4596 56.4467 87.7663 57.02C88.0863 57.58 88.5129 57.9933 89.0463 58.26C89.5796 58.5267 90.1663 58.62 90.8063 58.54C91.4596 58.46 92.1263 58.1867 92.8063 57.72ZM105.635 55.48H97.8545C97.8812 56.3467 98.1145 57.0333 98.5545 57.54C98.9945 58.0467 99.5545 58.38 100.235 58.54C100.915 58.7 101.641 58.6867 102.415 58.5C103.188 58.3133 103.921 57.96 104.615 57.44L105.455 58.68C104.801 59.1867 104.121 59.56 103.415 59.8C102.708 60.04 102.001 60.1667 101.295 60.18C99.6279 60.22 98.3545 59.76 97.4745 58.8C96.5945 57.8267 96.1545 56.4733 96.1545 54.74C96.1545 53.26 96.5679 52.08 97.3945 51.2C98.2345 50.32 99.4479 49.8867 101.035 49.9C102.075 49.9 102.961 50.1133 103.695 50.54C104.428 50.9667 104.968 51.6 105.315 52.44C105.488 52.8533 105.595 53.3133 105.635 53.82C105.688 54.3267 105.688 54.88 105.635 55.48ZM101.115 51.38C100.208 51.38 99.4345 51.62 98.7945 52.1C98.1679 52.5667 97.8545 53.2667 97.8545 54.2H104.215C104.215 53.32 103.935 52.6333 103.375 52.14C102.828 51.6333 102.075 51.38 101.115 51.38ZM107.425 58.84L108.365 57.82C108.778 58.1267 109.192 58.3667 109.605 58.54C110.018 58.7 110.438 58.7733 110.865 58.76C111.118 58.76 111.358 58.7267 111.585 58.66C111.812 58.5933 112.025 58.48 112.225 58.32C112.478 58.1333 112.645 57.8933 112.725 57.6C112.818 57.3067 112.818 57.0267 112.725 56.76C112.618 56.4667 112.425 56.2333 112.145 56.06C111.865 55.8867 111.532 55.74 111.145 55.62C110.772 55.4867 110.378 55.3533 109.965 55.22C109.565 55.0733 109.192 54.8933 108.845 54.68C108.245 54.28 107.858 53.8267 107.685 53.32C107.512 52.8 107.512 52.2933 107.685 51.8C107.872 51.2933 108.198 50.8667 108.665 50.52C109.145 50.1733 109.738 49.9733 110.445 49.92C111.125 49.88 111.785 49.96 112.425 50.16C113.065 50.36 113.565 50.64 113.925 51L112.925 51.96C112.592 51.7333 112.232 51.5667 111.845 51.46C111.458 51.3533 111.085 51.3 110.725 51.3C110.298 51.3133 109.932 51.4133 109.625 51.6C109.332 51.7867 109.165 52.0867 109.125 52.5C109.098 52.8867 109.225 53.1933 109.505 53.42C109.785 53.6333 110.172 53.8267 110.665 54C111.158 54.16 111.692 54.3467 112.265 54.56C112.932 54.8267 113.445 55.2133 113.805 55.72C114.178 56.2133 114.292 56.8467 114.145 57.62C114.052 58.34 113.758 58.9067 113.265 59.32C112.785 59.7333 112.198 59.9933 111.505 60.1C110.812 60.2067 110.098 60.16 109.365 59.96C108.645 59.7467 107.998 59.3733 107.425 58.84ZM123.421 58.84L124.361 57.82C124.774 58.1267 125.188 58.3667 125.601 58.54C126.014 58.7 126.434 58.7733 126.861 58.76C127.114 58.76 127.354 58.7267 127.581 58.66C127.808 58.5933 128.021 58.48 128.221 58.32C128.474 58.1333 128.641 57.8933 128.721 57.6C128.814 57.3067 128.814 57.0267 128.721 56.76C128.614 56.4667 128.421 56.2333 128.141 56.06C127.861 55.8867 127.528 55.74 127.141 55.62C126.768 55.4867 126.374 55.3533 125.961 55.22C125.561 55.0733 125.188 54.8933 124.841 54.68C124.241 54.28 123.854 53.8267 123.681 53.32C123.508 52.8 123.508 52.2933 123.681 51.8C123.868 51.2933 124.194 50.8667 124.661 50.52C125.141 50.1733 125.734 49.9733 126.441 49.92C127.121 49.88 127.781 49.96 128.421 50.16C129.061 50.36 129.561 50.64 129.921 51L128.921 51.96C128.588 51.7333 128.228 51.5667 127.841 51.46C127.454 51.3533 127.081 51.3 126.721 51.3C126.294 51.3133 125.928 51.4133 125.621 51.6C125.328 51.7867 125.161 52.0867 125.121 52.5C125.094 52.8867 125.221 53.1933 125.501 53.42C125.781 53.6333 126.168 53.8267 126.661 54C127.154 54.16 127.688 54.3467 128.261 54.56C128.928 54.8267 129.441 55.2133 129.801 55.72C130.174 56.2133 130.288 56.8467 130.141 57.62C130.048 58.34 129.754 58.9067 129.261 59.32C128.781 59.7333 128.194 59.9933 127.501 60.1C126.808 60.2067 126.094 60.16 125.361 59.96C124.641 59.7467 123.994 59.3733 123.421 58.84ZM133.08 48.68C132.786 48.68 132.533 48.58 132.32 48.38C132.12 48.1667 132.02 47.9133 132.02 47.62C132.02 47.3267 132.12 47.08 132.32 46.88C132.533 46.6667 132.786 46.56 133.08 46.56C133.373 46.56 133.62 46.6667 133.82 46.88C134.033 47.08 134.14 47.3267 134.14 47.62C134.14 47.9133 134.033 48.1667 133.82 48.38C133.62 48.58 133.373 48.68 133.08 48.68ZM133.84 60H132.34V50H133.84V60ZM144.901 60H143.321V54.06C143.321 53.42 143.181 52.9067 142.901 52.52C142.634 52.1333 142.287 51.86 141.861 51.7C141.447 51.5267 141.014 51.44 140.561 51.44C140.121 51.44 139.681 51.5333 139.241 51.72C138.814 51.9067 138.454 52.1933 138.161 52.58C137.867 52.9667 137.721 53.46 137.721 54.06V60H136.141V50H137.721V51.08C138.027 50.6667 138.447 50.3667 138.981 50.18C139.514 49.98 140.067 49.88 140.641 49.88C141.414 49.88 142.121 50.04 142.761 50.36C143.414 50.68 143.934 51.1533 144.321 51.78C144.707 52.3933 144.901 53.1533 144.901 54.06V60ZM147.767 48.68C147.474 48.68 147.22 48.58 147.007 48.38C146.807 48.1667 146.707 47.9133 146.707 47.62C146.707 47.3267 146.807 47.08 147.007 46.88C147.22 46.6667 147.474 46.56 147.767 46.56C148.06 46.56 148.307 46.6667 148.507 46.88C148.72 47.08 148.827 47.3267 148.827 47.62C148.827 47.9133 148.72 48.1667 148.507 48.38C148.307 48.58 148.06 48.68 147.767 48.68ZM148.527 60H147.027V50H148.527V60ZM150.238 58.84L151.178 57.82C151.591 58.1267 152.004 58.3667 152.418 58.54C152.831 58.7 153.251 58.7733 153.678 58.76C153.931 58.76 154.171 58.7267 154.398 58.66C154.624 58.5933 154.838 58.48 155.038 58.32C155.291 58.1333 155.458 57.8933 155.538 57.6C155.631 57.3067 155.631 57.0267 155.538 56.76C155.431 56.4667 155.238 56.2333 154.958 56.06C154.678 55.8867 154.344 55.74 153.958 55.62C153.584 55.4867 153.191 55.3533 152.778 55.22C152.378 55.0733 152.004 54.8933 151.658 54.68C151.058 54.28 150.671 53.8267 150.498 53.32C150.324 52.8 150.324 52.2933 150.498 51.8C150.684 51.2933 151.011 50.8667 151.478 50.52C151.958 50.1733 152.551 49.9733 153.258 49.92C153.938 49.88 154.598 49.96 155.238 50.16C155.878 50.36 156.378 50.64 156.738 51L155.738 51.96C155.404 51.7333 155.044 51.5667 154.658 51.46C154.271 51.3533 153.898 51.3 153.538 51.3C153.111 51.3133 152.744 51.4133 152.438 51.6C152.144 51.7867 151.978 52.0867 151.938 52.5C151.911 52.8867 152.038 53.1933 152.318 53.42C152.598 53.6333 152.984 53.8267 153.478 54C153.971 54.16 154.504 54.3467 155.078 54.56C155.744 54.8267 156.258 55.2133 156.618 55.72C156.991 56.2133 157.104 56.8467 156.958 57.62C156.864 58.34 156.571 58.9067 156.078 59.32C155.598 59.7333 155.011 59.9933 154.318 60.1C153.624 60.2067 152.911 60.16 152.178 59.96C151.458 59.7467 150.811 59.3733 150.238 58.84ZM160.259 55.68V51.48H158.519V50H160.259V46H161.839V50H163.599V51.48H161.839V55.68C161.839 56.5333 161.865 57.16 161.919 57.56C161.985 57.9467 162.112 58.1933 162.299 58.3C162.485 58.4067 162.759 58.4667 163.119 58.48H163.619V60.06H163.179C162.565 60.06 162.065 60.0067 161.679 59.9C161.292 59.78 160.992 59.5667 160.779 59.26C160.579 58.9533 160.439 58.5133 160.359 57.94C160.292 57.3667 160.259 56.6133 160.259 55.68ZM165.594 60V50.12H167.174V51.04C167.614 50.5467 168.154 50.2467 168.794 50.14C169.447 50.0333 170.267 50.12 171.254 50.4L170.514 51.8C169.914 51.5867 169.354 51.5533 168.834 51.7C168.327 51.8333 167.92 52.0733 167.614 52.42C167.307 52.7667 167.16 53.14 167.174 53.54V60H165.594ZM181.103 55.48H173.323C173.35 56.3467 173.583 57.0333 174.023 57.54C174.463 58.0467 175.023 58.38 175.703 58.54C176.383 58.7 177.11 58.6867 177.883 58.5C178.657 58.3133 179.39 57.96 180.083 57.44L180.923 58.68C180.27 59.1867 179.59 59.56 178.883 59.8C178.177 60.04 177.47 60.1667 176.763 60.18C175.097 60.22 173.823 59.76 172.943 58.8C172.063 57.8267 171.623 56.4733 171.623 54.74C171.623 53.26 172.037 52.08 172.863 51.2C173.703 50.32 174.917 49.8867 176.503 49.9C177.543 49.9 178.43 50.1133 179.163 50.54C179.897 50.9667 180.437 51.6 180.783 52.44C180.957 52.8533 181.063 53.3133 181.103 53.82C181.157 54.3267 181.157 54.88 181.103 55.48ZM176.583 51.38C175.677 51.38 174.903 51.62 174.263 52.1C173.637 52.5667 173.323 53.2667 173.323 54.2H179.683C179.683 53.32 179.403 52.6333 178.843 52.14C178.297 51.6333 177.543 51.38 176.583 51.38ZM182.894 58.84L183.834 57.82C184.247 58.1267 184.66 58.3667 185.074 58.54C185.487 58.7 185.907 58.7733 186.334 58.76C186.587 58.76 186.827 58.7267 187.054 58.66C187.28 58.5933 187.494 58.48 187.694 58.32C187.947 58.1333 188.114 57.8933 188.194 57.6C188.287 57.3067 188.287 57.0267 188.194 56.76C188.087 56.4667 187.894 56.2333 187.614 56.06C187.334 55.8867 187 55.74 186.614 55.62C186.24 55.4867 185.847 55.3533 185.434 55.22C185.034 55.0733 184.66 54.8933 184.314 54.68C183.714 54.28 183.327 53.8267 183.154 53.32C182.98 52.8 182.98 52.2933 183.154 51.8C183.34 51.2933 183.667 50.8667 184.134 50.52C184.614 50.1733 185.207 49.9733 185.914 49.92C186.594 49.88 187.254 49.96 187.894 50.16C188.534 50.36 189.034 50.64 189.394 51L188.394 51.96C188.06 51.7333 187.7 51.5667 187.314 51.46C186.927 51.3533 186.554 51.3 186.194 51.3C185.767 51.3133 185.4 51.4133 185.094 51.6C184.8 51.7867 184.634 52.0867 184.594 52.5C184.567 52.8867 184.694 53.1933 184.974 53.42C185.254 53.6333 185.64 53.8267 186.134 54C186.627 54.16 187.16 54.3467 187.734 54.56C188.4 54.8267 188.914 55.2133 189.274 55.72C189.647 56.2133 189.76 56.8467 189.614 57.62C189.52 58.34 189.227 58.9067 188.734 59.32C188.254 59.7333 187.667 59.9933 186.974 60.1C186.28 60.2067 185.567 60.16 184.834 59.96C184.114 59.7467 183.467 59.3733 182.894 58.84Z" fill="black"/>
</svg>
